<svg xmlns="http://www.w3.org/2000/svg" viewBox="0 0 24 24" fill="none" stroke="currentColor" stroke-width="1.8" stroke-linecap="round" stroke-linejoin="round">
  <circle cx="12" cy="12" r="3"/>
  <path d="M19.4 15a1.7 1.7 0 0 0 .3 1.9l.1.1-2 2-.1-.1a1.7 1.7 0 0 0-1.9-.3 1.7 1.7 0 0 0-1 1.5V20h-3v-.1a1.7 1.7 0 0 0-1-1.5 1.7 1.7 0 0 0-1.9.3l-.1.1-2-2 .1-.1a1.7 1.7 0 0 0 .3-1.9 1.7 1.7 0 0 0-1.5-1H5v-3h.1a1.7 1.7 0 0 0 1.5-1 1.7 1.7 0 0 0-.3-1.9l-.1-.1 2-2 .1.1a1.7 1.7 0 0 0 1.9.3 1.7 1.7 0 0 0 1-1.5V4h3v.1a1.7 1.7 0 0 0 1 1.5 1.7 1.7 0 0 0 1.9-.3l.1-.1 2 2-.1.1a1.7 1.7 0 0 0-.3 1.9 1.7 1.7 0 0 0 1.5 1h.1v3h-.1a1.7 1.7 0 0 0-1.5 1z"/>
</svg>
