<?xml version="1.0" encoding="UTF-8" standalone="no"?>
<svg width="486.128mm" height="202.847mm"
 viewBox="0 0 1378 575"
 xmlns="http://www.w3.org/2000/svg" xmlns:xlink="http://www.w3.org/1999/xlink" version="1.2" baseProfile="tiny">
<title>Density lineout | snapshot 0 | t=1.0000e-15 s | static x | all zones (1300/1300) | linear</title>
<desc>Generated with Qt</desc>
<defs>
</defs>
<g fill="none" stroke="black" stroke-width="1" fill-rule="evenodd" stroke-linecap="square" stroke-linejoin="bevel" >

<g fill="#f7fafc" fill-opacity="1" stroke="none" transform="matrix(1,0,0,1,0,0)"
font-family="DejaVu Sans" font-size="10" font-weight="400" font-style="normal" 
>
<rect x="0" y="0" width="1378" height="575"/>
</g>

<g fill="none" stroke="#000000" stroke-opacity="1" stroke-width="1" stroke-linecap="square" stroke-linejoin="bevel" transform="matrix(1,0,0,1,0,0)"
font-family="DejaVu Sans" font-size="10" font-weight="400" font-style="normal" 
>
</g>

<g fill="none" stroke="#000000" stroke-opacity="1" stroke-width="1" stroke-linecap="square" stroke-linejoin="bevel" transform="matrix(1,0,0,1,0,0)"
font-family="DejaVu Sans" font-size="10" font-weight="400" font-style="normal" 
>
</g>

<g fill="none" stroke="#000000" stroke-opacity="1" stroke-width="1" stroke-linecap="square" stroke-linejoin="bevel" transform="matrix(0.15908,0,0,0.15908,1.90896,1.27264)"
font-family="DejaVu Sans" font-size="10" font-weight="400" font-style="normal" 
>
</g>

<g fill="none" stroke="#000000" stroke-opacity="1" stroke-width="1" stroke-linecap="square" stroke-linejoin="bevel" transform="matrix(0.15908,0,0,0.15908,1.90896,1.27264)"
font-family="DejaVu Sans" font-size="10" font-weight="400" font-style="normal" 
>
</g>

<g fill="none" stroke="#000000" stroke-opacity="1" stroke-width="1" stroke-linecap="square" stroke-linejoin="bevel" transform="matrix(0.15908,0,0,0.15908,10.9447,6.20411)"
font-family="DejaVu Sans" font-size="10" font-weight="400" font-style="normal" 
>
</g>

<g fill="none" stroke="none" transform="matrix(0.15908,0,0,0.15908,10.9447,6.20411)"
font-family="DejaVu Sans" font-size="10" font-weight="400" font-style="normal" 
>
<path vector-effect="non-scaling-stroke" fill-rule="evenodd" d="M0,0 L1320.7,0 L1320.7,502.7 L0,502.7 L0,0"/>
</g>

<g fill="none" stroke="#000000" stroke-opacity="1" stroke-width="1" stroke-linecap="square" stroke-linejoin="bevel" transform="matrix(0.15908,0,0,0.15908,10.9447,6.20411)"
font-family="DejaVu Sans" font-size="10" font-weight="400" font-style="normal" 
>
</g>

<g fill="none" stroke="#000000" stroke-opacity="1" stroke-width="1" stroke-linecap="square" stroke-linejoin="bevel" transform="matrix(0.15908,0,0,0.15908,10.9447,6.20411)"
font-family="DejaVu Sans" font-size="10" font-weight="400" font-style="normal" 
>
</g>

<g fill="none" stroke="#000000" stroke-opacity="1" stroke-width="1" stroke-linecap="square" stroke-linejoin="bevel" transform="matrix(0.15908,0,0,0.15908,10.9447,6.20411)"
font-family="DejaVu Sans" font-size="10" font-weight="400" font-style="normal" 
>
</g>

<g fill="#f7fafc" fill-opacity="1" stroke="none" transform="matrix(0.15908,0,0,0.15908,10.9447,6.20411)"
font-family="DejaVu Sans" font-size="10" font-weight="400" font-style="normal" 
>
<rect vector-effect="non-scaling-stroke" x="0" y="0" width="1320.2" height="502.2"/>
</g>

<g fill="none" stroke="#000000" stroke-opacity="1" stroke-width="1" stroke-linecap="square" stroke-linejoin="bevel" transform="matrix(0.15908,0,0,0.15908,10.9447,6.20411)"
font-family="DejaVu Sans" font-size="10" font-weight="400" font-style="normal" 
>
</g>

<g fill="none" stroke="#000000" stroke-opacity="1" stroke-width="1" stroke-linecap="square" stroke-linejoin="bevel" transform="matrix(11.6674,0,0,-79.8899,10.9447,759.566)"
font-family="DejaVu Sans" font-size="10" font-weight="400" font-style="normal" 
>
</g>

<g fill="none" stroke="#2563eb" stroke-opacity="1" stroke-width="2" stroke-linecap="square" stroke-linejoin="bevel" transform="matrix(11.6674,0,0,-79.8899,10.9447,759.566)"
font-family="DejaVu Sans" font-size="10" font-weight="400" font-style="normal" 
>
<path vector-effect="non-scaling-stroke" fill-rule="evenodd" d="M1e-07,2.329 L2.1019e-07,2.329 L3.3162e-07,2.329 L4.6543e-07,2.329 L6.1288e-07,2.329 L7.7535e-07,2.329 L9.5439e-07,2.329 L1.1517e-06,2.329 L1.3691e-06,2.329 L1.6086e-06,2.329 L1.8726e-06,2.329 L2.1634e-06,2.329 L2.4839e-06,2.329 L2.837e-06,2.329 L3.2261e-06,2.329 L3.6549e-06,2.329 L4.1272e-06,2.329 L4.6477e-06,2.329 L5.2211e-06,2.329 L5.8529e-06,2.329 L6.5489e-06,2.329 L7.3157e-06,2.329 L8.1605e-06,2.329 L9.091e-06,2.329 L1.0116e-05,2.329 L1.1245e-05,2.329 L1.2488e-05,2.329 L1.3858e-05,2.329 L1.5366e-05,2.329 L1.7026e-05,2.329 L1.8854e-05,2.329 L2.0866e-05,2.329 L2.308e-05,2.329 L2.5516e-05,2.329 L2.8197e-05,2.329 L3.1144e-05,2.329 L3.4385e-05,2.329 L3.7948e-05,2.329 L4.1861e-05,2.329 L4.6159e-05,2.329 L5.0875e-05,2.329 L5.6049e-05,2.329 L6.172e-05,2.329 L6.7931e-05,2.329 L7.4727e-05,2.329 L8.2155e-05,2.329 L9.0264e-05,2.329 L9.9104e-05,2.329 L0.00010873,2.329 L0.00011918,2.329 L0.00013052,2.329 L0.00014279,2.329 L0.00015603,2.329 L0.00017028,2.329 L0.00018557,2.329 L0.00020191,2.329 L0.00021932,2.329 L0.0002378,2.329 L0.00025731,2.329 L0.00027783,2.329 L0.0002993,2.329 L0.00032164,2.329 L0.00034478,2.329 L0.0003686,2.329 L0.000393,2.329 L0.00041785,2.329 L0.00044301,2.329 L0.00046835,2.329 L0.00049374,2.329 L0.00051906,2.329 L0.00054417,2.329 L0.00056898,2.329 L0.00059337,2.329 L0.00061727,2.329 L0.0006406,2.329 L0.00066329,2.329 L0.0006853,2.329 L0.00070659,2.329 L0.00072714,2.329 L0.00074693,2.329 L0.00076594,2.329 L0.00078419,2.329 L0.00080167,2.329 L0.00081839,2.329 L0.00083438,2.329 L0.00084964,2.329 L0.00086419,2.329 L0.00087807,2.329 L0.00089128,2.329 L0.00090386,2.329 L0.00091583,2.329 L0.00092721,2.329 L0.00093803,2.329 L0.00094831,2.329 L0.00095808,2.329 L0.00096735,2.329 L0.00097616,2.329 L0.00098453,2.329 L0.00099247,2.329 L0.001,2.329 L0.0010065,2.7 L0.001013,2.7 L0.0010195,2.7 L0.001026,2.7 L0.0010325,2.7 L0.001039,2.7 L0.0010455,2.7 L0.001052,2.7 L0.0010585,2.7 L0.001065,2.7 L0.0010715,2.7 L0.001078,2.7 L0.0010845,2.7 L0.001091,2.7 L0.0010975,2.7 L0.001104,2.7 L0.0011105,2.7 L0.001117,2.7 L0.0011235,2.7 L0.00113,2.7 L0.0011365,2.7 L0.001143,2.7 L0.0011495,2.7 L0.001156,2.7 L0.0011625,2.7 L0.001169,2.7 L0.0011755,2.7 L0.001182,2.7 L0.0011885,2.7 L0.001195,2.7 L0.0012015,2.7 L0.001208,2.7 L0.0012145,2.7 L0.001221,2.7 L0.0012275,2.7 L0.001234,2.7 L0.0012405,2.7 L0.001247,2.7 L0.0012535,2.7 L0.00126,2.7 L0.0012666,2.7 L0.0012731,2.7 L0.0012796,2.7 L0.0012861,2.7 L0.0012926,2.7 L0.0012991,2.7 L0.0013056,2.7 L0.0013121,2.7 L0.0013186,2.7 L0.0013251,2.7 L0.0013316,2.7 L0.0013381,2.7 L0.0013446,2.7 L0.0013511,2.7 L0.0013576,2.7 L0.0013641,2.7 L0.0013706,2.7 L0.0013771,2.7 L0.0013836,2.7 L0.0013901,2.7 L0.0013966,2.7 L0.0014031,2.7 L0.0014096,2.7 L0.0014161,2.7 L0.0014226,2.7 L0.0014291,2.7 L0.0014356,2.7 L0.0014421,2.7 L0.0014486,2.7 L0.0014551,2.7 L0.0014616,2.7 L0.0014681,2.7 L0.0014747,2.7 L0.0014812,2.7 L0.0014877,2.7 L0.0014942,2.7 L0.0015007,2.7 L0.0015072,2.7 L0.0015137,2.7 L0.0015202,2.7 L0.0015267,2.7 L0.0015332,2.7 L0.0015397,2.7 L0.0015462,2.7 L0.0015527,2.7 L0.0015592,2.7 L0.0015657,2.7 L0.0015722,2.7 L0.0015787,2.7 L0.0015852,2.7 L0.0015917,2.7 L0.0015982,2.7 L0.0016047,2.7 L0.0016112,2.7 L0.0016178,2.7 L0.0016243,2.7 L0.0016308,2.7 L0.0016373,2.7 L0.0016438,2.7 L0.0016503,2.7 L0.0016568,2.7 L0.0016633,2.7 L0.0016698,2.7 L0.0016763,2.7 L0.0016828,2.7 L0.0016893,2.7 L0.0016958,2.7 L0.0017023,2.7 L0.0017088,2.7 L0.0017153,2.7 L0.0017218,2.7 L0.0017283,2.7 L0.0017348,2.7 L0.0017414,2.7 L0.0017479,2.7 L0.0017544,2.7 L0.0017609,2.7 L0.0017674,2.7 L0.0017739,2.7 L0.0017804,2.7 L0.0017869,2.7 L0.0017934,2.7 L0.0017999,2.7 L0.0018064,2.7 L0.0018129,2.7 L0.0018194,2.7 L0.0018259,2.7 L0.0018324,2.7 L0.0018389,2.7 L0.0018455,2.7 L0.001852,2.7 L0.0018585,2.7 L0.001865,2.7 L0.0018715,2.7 L0.001878,2.7 L0.0018845,2.7 L0.001891,2.7 L0.0018975,2.7 L0.001904,2.7 L0.0019105,2.7 L0.001917,2.7 L0.0019235,2.7 L0.00193,2.7 L0.0019365,2.7 L0.0019431,2.7 L0.0019496,2.7 L0.0019561,2.7 L0.0019626,2.7 L0.0019691,2.7 L0.0019756,2.7 L0.0019821,2.7 L0.0019886,2.7 L0.0019951,2.7 L0.0020016,2.7 L0.0020081,2.7 L0.0020146,2.7 L0.0020211,2.7 L0.0020276,2.7 L0.0020342,2.7 L0.0020407,2.7 L0.0020472,2.7 L0.0020537,2.7 L0.0020602,2.7 L0.0020667,2.7 L0.0020732,2.7 L0.0020797,2.7 L0.0020862,2.7 L0.0020927,2.7 L0.0020992,2.7 L0.0021057,2.7 L0.0021122,2.7 L0.0021188,2.7 L0.0021253,2.7 L0.0021318,2.7 L0.0021383,2.7 L0.0021448,2.7 L0.0021513,2.7 L0.0021578,2.7 L0.0021643,2.7 L0.0021708,2.7 L0.0021773,2.7 L0.0021838,2.7 L0.0021903,2.7 L0.0021969,2.7 L0.0022034,2.7 L0.0022099,2.7 L0.0022164,2.7 L0.0022229,2.7 L0.0022294,2.7 L0.0022359,2.7 L0.0022424,2.7 L0.0022489,2.7 L0.0022554,2.7 L0.0022619,2.7 L0.0022684,2.7 L0.002275,2.7 L0.0022815,2.7 L0.002288,2.7 L0.0022945,2.7 L0.002301,2.7 L0.0023075,2.7 L0.002314,2.7 L0.0023205,2.7 L0.002327,2.7 L0.0023335,2.7 L0.00234,2.7 L0.0023465,2.7 L0.0023531,2.7 L0.0023596,2.7 L0.0023661,2.7 L0.0023726,2.7 L0.0023791,2.7 L0.0023856,2.7 L0.0023921,2.7 L0.0023986,2.7 L0.0024051,2.7 L0.0024116,2.7 L0.0024181,2.7 L0.0024247,2.7 L0.0024312,2.7 L0.0024377,2.7 L0.0024442,2.7 L0.0024507,2.7 L0.0024572,2.7 L0.0024637,2.7 L0.0024702,2.7 L0.0024767,2.7 L0.0024832,2.7 L0.0024897,2.7 L0.0024963,2.7 L0.0025028,2.7 L0.0025093,2.7 L0.0025158,2.7 L0.0025223,2.7 L0.0025288,2.7 L0.0025353,2.7 L0.0025418,2.7 L0.0025483,2.7 L0.0025548,2.7 L0.0025613,2.7 L0.0025679,2.7 L0.0025744,2.7 L0.0025809,2.7 L0.0025874,2.7 L0.0025939,2.7 L0.0026004,2.7 L0.0026069,2.7 L0.0026134,2.7 L0.0026199,2.7 L0.0026264,2.7 L0.002633,2.7 L0.0026395,2.7 L0.002646,2.7 L0.0026525,2.7 L0.002659,2.7 L0.0026655,2.7 L0.002672,2.7 L0.0026785,2.7 L0.002685,2.7 L0.0026915,2.7 L0.0026981,2.7 L0.0027046,2.7 L0.0027111,2.7 L0.0027176,2.7 L0.0027241,2.7 L0.0027306,2.7 L0.0027371,2.7 L0.0027436,2.7 L0.0027501,2.7 L0.0027566,2.7 L0.0027632,2.7 L0.0027697,2.7 L0.0027762,2.7 L0.0027827,2.7 L0.0027892,2.7 L0.0027957,2.7 L0.0028022,2.7 L0.0028087,2.7 L0.0028152,2.7 L0.0028217,2.7 L0.0028283,2.7 L0.0028348,2.7 L0.0028413,2.7 L0.0028478,2.7 L0.0028543,2.7 L0.0028608,2.7 L0.0028673,2.7 L0.0028738,2.7 L0.0028803,2.7 L0.0028868,2.7 L0.0028934,2.7 L0.0028999,2.7 L0.0029064,2.7 L0.0029129,2.7 L0.0029194,2.7 L0.0029259,2.7 L0.0029324,2.7 L0.0029389,2.7 L0.0029454,2.7 L0.0029519,2.7 L0.0029585,2.7 L0.002965,2.7 L0.0029715,2.7 L0.002978,2.7 L0.0029845,2.7 L0.002991,2.7 L0.0029975,2.7 L0.003004,2.7 L0.0030105,2.7 L0.003017,2.7 L0.0030236,2.7 L0.0030301,2.7 L0.0030366,2.7 L0.0030431,2.7 L0.0030496,2.7 L0.0030561,2.7 L0.0030626,2.7 L0.0030691,2.7 L0.0030756,2.7 L0.0030821,2.7 L0.0030887,2.7 L0.0030952,2.7 L0.0031017,2.7 L0.0031082,2.7 L0.0031147,2.7 L0.0031212,2.7 L0.0031277,2.7 L0.0031342,2.7 L0.0031407,2.7 L0.0031473,2.7 L0.0031538,2.7 L0.0031603,2.7 L0.0031668,2.7 L0.0031733,2.7 L0.0031798,2.7 L0.0031863,2.7 L0.0031928,2.7 L0.0031993,2.7 L0.0032058,2.7 L0.0032124,2.7 L0.0032189,2.7 L0.0032254,2.7 L0.0032319,2.7 L0.0032384,2.7 L0.0032449,2.7 L0.0032514,2.7 L0.0032579,2.7 L0.0032644,2.7 L0.0032709,2.7 L0.0032775,2.7 L0.003284,2.7 L0.0032905,2.7 L0.003297,2.7 L0.0033035,2.7 L0.00331,2.7 L0.0033165,2.7 L0.003323,2.7 L0.0033295,2.7 L0.003336,2.7 L0.0033426,2.7 L0.0033491,2.7 L0.0033556,2.7 L0.0033621,2.7 L0.0033686,2.7 L0.0033751,2.7 L0.0033816,2.7 L0.0033881,2.7 L0.0033946,2.7 L0.0034012,2.7 L0.0034077,2.7 L0.0034142,2.7 L0.0034207,2.7 L0.0034272,2.7 L0.0034337,2.7 L0.0034402,2.7 L0.0034467,2.7 L0.0034532,2.7 L0.0034597,2.7 L0.0034663,2.7 L0.0034728,2.7 L0.0034793,2.7 L0.0034858,2.7 L0.0034923,2.7 L0.0034988,2.7 L0.0035053,2.7 L0.0035118,2.7 L0.0035183,2.7 L0.0035248,2.7 L0.0035314,2.7 L0.0035379,2.7 L0.0035444,2.7 L0.0035509,2.7 L0.0035574,2.7 L0.0035639,2.7 L0.0035704,2.7 L0.0035769,2.7 L0.0035834,2.7 L0.0035899,2.7 L0.0035965,2.7 L0.003603,2.7 L0.0036095,2.7 L0.003616,2.7 L0.0036225,2.7 L0.003629,2.7 L0.0036355,2.7 L0.003642,2.7 L0.0036485,2.7 L0.003655,2.7 L0.0036616,2.7 L0.0036681,2.7 L0.0036746,2.7 L0.0036811,2.7 L0.0036876,2.7 L0.0036941,2.7 L0.0037006,2.7 L0.0037071,2.7 L0.0037136,2.7 L0.0037201,2.7 L0.0037266,2.7 L0.0037332,2.7 L0.0037397,2.7 L0.0037462,2.7 L0.0037527,2.7 L0.0037592,2.7 L0.0037657,2.7 L0.0037722,2.7 L0.0037787,2.7 L0.0037852,2.7 L0.0037917,2.7 L0.0037983,2.7 L0.0038048,2.7 L0.0038113,2.7 L0.0038178,2.7 L0.0038243,2.7 L0.0038308,2.7 L0.0038373,2.7 L0.0038438,2.7 L0.0038503,2.7 L0.0038568,2.7 L0.0038633,2.7 L0.0038699,2.7 L0.0038764,2.7 L0.0038829,2.7 L0.0038894,2.7 L0.0038959,2.7 L0.0039024,2.7 L0.0039089,2.7 L0.0039154,2.7 L0.0039219,2.7 L0.0039284,2.7 L0.0039349,2.7 L0.0039415,2.7 L0.003948,2.7 L0.0039545,2.7 L0.003961,2.7 L0.0039675,2.7 L0.003974,2.7 L0.0039805,2.7 L0.003987,2.7 L0.0039935,2.7 L0.004,2.7 L0.0040065,2.7 L0.0040131,2.7 L0.0040196,2.7 L0.0040261,2.7 L0.0040326,2.7 L0.0040391,2.7 L0.0040456,2.7 L0.0040521,2.7 L0.0040586,2.7 L0.0040651,2.7 L0.0040716,2.7 L0.0040781,2.7 L0.0040847,2.7 L0.0040912,2.7 L0.0040977,2.7 L0.0041042,2.7 L0.0041107,2.7 L0.0041172,2.7 L0.0041237,2.7 L0.0041302,2.7 L0.0041367,2.7 L0.0041432,2.7 L0.0041497,2.7 L0.0041562,2.7 L0.0041628,2.7 L0.0041693,2.7 L0.0041758,2.7 L0.0041823,2.7 L0.0041888,2.7 L0.0041953,2.7 L0.0042018,2.7 L0.0042083,2.7 L0.0042148,2.7 L0.0042213,2.7 L0.0042278,2.7 L0.0042343,2.7 L0.0042408,2.7 L0.0042474,2.7 L0.0042539,2.7 L0.0042604,2.7 L0.0042669,2.7 L0.0042734,2.7 L0.0042799,2.7 L0.0042864,2.7 L0.0042929,2.7 L0.0042994,2.7 L0.0043059,2.7 L0.0043124,2.7 L0.0043189,2.7 L0.0043254,2.7 L0.004332,2.7 L0.0043385,2.7 L0.004345,2.7 L0.0043515,2.7 L0.004358,2.7 L0.0043645,2.7 L0.004371,2.7 L0.0043775,2.7 L0.004384,2.7 L0.0043905,2.7 L0.004397,2.7 L0.0044035,2.7 L0.00441,2.7 L0.0044165,2.7 L0.0044231,2.7 L0.0044296,2.7 L0.0044361,2.7 L0.0044426,2.7 L0.0044491,2.7 L0.0044556,2.7 L0.0044621,2.7 L0.0044686,2.7 L0.0044751,2.7 L0.0044816,2.7 L0.0044881,2.7 L0.0044946,2.7 L0.0045011,2.7 L0.0045076,2.7 L0.0045141,2.7 L0.0045207,2.7 L0.0045272,2.7 L0.0045337,2.7 L0.0045402,2.7 L0.0045467,2.7 L0.0045532,2.7 L0.0045597,2.7 L0.0045662,2.7 L0.0045727,2.7 L0.0045792,2.7 L0.0045857,2.7 L0.0045922,2.7 L0.0045987,2.7 L0.0046052,2.7 L0.0046117,2.7 L0.0046182,2.7 L0.0046248,2.7 L0.0046313,2.7 L0.0046378,2.7 L0.0046443,2.7 L0.0046508,2.7 L0.0046573,2.7 L0.0046638,2.7 L0.0046703,2.7 L0.0046768,2.7 L0.0046833,2.7 L0.0046898,2.7 L0.0046963,2.7 L0.0047028,2.7 L0.0047093,2.7 L0.0047158,2.7 L0.0047223,2.7 L0.0047288,2.7 L0.0047353,2.7 L0.0047418,2.7 L0.0047484,2.7 L0.0047549,2.7 L0.0047614,2.7 L0.0047679,2.7 L0.0047744,2.7 L0.0047809,2.7 L0.0047874,2.7 L0.0047939,2.7 L0.0048004,2.7 L0.0048069,2.7 L0.0048134,2.7 L0.0048199,2.7 L0.0048264,2.7 L0.0048329,2.7 L0.0048394,2.7 L0.0048459,2.7 L0.0048524,2.7 L0.0048589,2.7 L0.0048654,2.7 L0.0048719,2.7 L0.0048784,2.7 L0.0048849,2.7 L0.0048914,2.7 L0.004898,2.7 L0.0049045,2.7 L0.004911,2.7 L0.0049175,2.7 L0.004924,2.7 L0.0049305,2.7 L0.004937,2.7 L0.0049435,2.7 L0.00495,2.7 L0.0049565,2.7 L0.004963,2.7 L0.0049695,2.7 L0.004976,2.7 L0.0049825,2.7 L0.004989,2.7 L0.0049955,2.7 L0.005002,2.7 L0.0050085,2.7 L0.005015,2.7 L0.0050215,2.7 L0.005028,2.7 L0.0050345,2.7 L0.005041,2.7 L0.0050475,2.7 L0.005054,2.7 L0.0050605,2.7 L0.005067,2.7 L0.0050735,2.7 L0.00508,2.7 L0.0050865,2.7 L0.005093,2.7 L0.0050995,2.7 L0.005106,2.7 L0.0051126,2.7 L0.0051191,2.7 L0.0051256,2.7 L0.0051321,2.7 L0.0051386,2.7 L0.0051451,2.7 L0.0051516,2.7 L0.0051581,2.7 L0.0051646,2.7 L0.0051711,2.7 L0.0051776,2.7 L0.0051841,2.7 L0.0051906,2.7 L0.0051971,2.7 L0.0052036,2.7 L0.0052101,2.7 L0.0052166,2.7 L0.0052231,2.7 L0.0052296,2.7 L0.0052361,2.7 L0.0052426,2.7 L0.0052491,2.7 L0.0052556,2.7 L0.0052621,2.7 L0.0052686,2.7 L0.0052751,2.7 L0.0052816,2.7 L0.0052881,2.7 L0.0052946,2.7 L0.0053011,2.7 L0.0053076,2.7 L0.0053141,2.7 L0.0053206,2.7 L0.0053271,2.7 L0.0053336,2.7 L0.0053401,2.7 L0.0053466,2.7 L0.0053531,2.7 L0.0053596,2.7 L0.0053661,2.7 L0.0053726,2.7 L0.0053791,2.7 L0.0053856,2.7 L0.0053921,2.7 L0.0053986,2.7 L0.0054051,2.7 L0.0054116,2.7 L0.0054181,2.7 L0.0054246,2.7 L0.0054311,2.7 L0.0054376,2.7 L0.0054441,2.7 L0.0054506,2.7 L0.0054571,2.7 L0.0054636,2.7 L0.0054701,2.7 L0.0054766,2.7 L0.0054831,2.7 L0.0054896,2.7 L0.0054961,2.7 L0.0055026,2.7 L0.0055091,2.7 L0.0055156,2.7 L0.0055221,2.7 L0.0055286,2.7 L0.0055351,2.7 L0.0055416,2.7 L0.0055481,2.7 L0.0055546,2.7 L0.0055611,2.7 L0.0055676,2.7 L0.0055741,2.7 L0.0055805,2.7 L0.005587,2.7 L0.0055935,2.7 L0.0056,2.7 L0.0056065,2.7 L0.005613,2.7 L0.0056195,2.7 L0.005626,2.7 L0.0056325,2.7 L0.005639,2.7 L0.0056455,2.7 L0.005652,2.7 L0.0056585,2.7 L0.005665,2.7 L0.0056715,2.7 L0.005678,2.7 L0.0056845,2.7 L0.005691,2.7 L0.0056975,2.7 L0.005704,2.7 L0.0057105,2.7 L0.005717,2.7 L0.0057235,2.7 L0.00573,2.7 L0.0057365,2.7 L0.005743,2.7 L0.0057495,2.7 L0.005756,2.7 L0.0057625,2.7 L0.005769,2.7 L0.0057754,2.7 L0.0057819,2.7 L0.0057884,2.7 L0.0057949,2.7 L0.0058014,2.7 L0.0058079,2.7 L0.0058144,2.7 L0.0058209,2.7 L0.0058274,2.7 L0.0058339,2.7 L0.0058404,2.7 L0.0058469,2.7 L0.0058534,2.7 L0.0058599,2.7 L0.0058664,2.7 L0.0058729,2.7 L0.0058794,2.7 L0.0058859,2.7 L0.0058924,2.7 L0.0058988,2.7 L0.0059053,2.7 L0.0059118,2.7 L0.0059183,2.7 L0.0059248,2.7 L0.0059313,2.7 L0.0059378,2.7 L0.0059443,2.7 L0.0059508,2.7 L0.0059573,2.7 L0.0059638,2.7 L0.0059703,2.7 L0.0059768,2.7 L0.0059833,2.7 L0.0059898,2.7 L0.0059963,2.7 L0.0060027,2.7 L0.0060092,2.7 L0.0060157,2.7 L0.0060222,2.7 L0.0060287,2.7 L0.0060352,2.7 L0.0060417,2.7 L0.0060482,2.7 L0.0060547,2.7 L0.0060612,2.7 L0.0060677,2.7 L0.0060742,2.7 L0.0060807,2.7 L0.0060871,2.7 L0.0060936,2.7 L0.0061001,2.7 L0.0061066,2.7 L0.0061131,2.7 L0.0061196,2.7 L0.0061261,2.7 L0.0061326,2.7 L0.0061391,2.7 L0.0061456,2.7 L0.0061521,2.7 L0.0061585,2.7 L0.006165,2.7 L0.0061715,2.7 L0.006178,2.7 L0.0061845,2.7 L0.006191,2.7 L0.0061975,2.7 L0.006204,2.7 L0.0062105,2.7 L0.006217,2.7 L0.0062235,2.7 L0.0062299,2.7 L0.0062364,2.7 L0.0062429,2.7 L0.0062494,2.7 L0.0062559,2.7 L0.0062624,2.7 L0.0062689,2.7 L0.0062754,2.7 L0.0062819,2.7 L0.0062883,2.7 L0.0062948,2.7 L0.0063013,2.7 L0.0063078,2.7 L0.0063143,2.7 L0.0063208,2.7 L0.0063273,2.7 L0.0063338,2.7 L0.0063403,2.7 L0.0063467,2.7 L0.0063532,2.7 L0.0063597,2.7 L0.0063662,2.7 L0.0063727,2.7 L0.0063792,2.7 L0.0063857,2.7 L0.0063922,2.7 L0.0063987,2.7 L0.0064051,2.7 L0.0064116,2.7 L0.0064181,2.7 L0.0064246,2.7 L0.0064311,2.7 L0.0064376,2.7 L0.0064441,2.7 L0.0064505,2.7 L0.006457,2.7 L0.0064635,2.7 L0.00647,2.7 L0.0064765,2.7 L0.006483,2.7 L0.0064895,2.7 L0.006496,2.7 L0.0065024,2.7 L0.0065089,2.7 L0.0065154,2.7 L0.0065219,2.7 L0.0065284,2.7 L0.0065349,2.7 L0.0065414,2.7 L0.0065478,2.7 L0.0065543,2.7 L0.0065608,2.7 L0.0065673,2.7 L0.0065738,2.7 L0.0065803,2.7 L0.0065868,2.7 L0.0065932,2.7 L0.0065997,2.7 L0.0066062,2.7 L0.0066127,2.7 L0.0066192,2.7 L0.0066257,2.7 L0.0066321,2.7 L0.0066386,2.7 L0.0066451,2.7 L0.0066516,2.7 L0.0066581,2.7 L0.0066646,2.7 L0.006671,2.7 L0.0066775,2.7 L0.006684,2.7 L0.0066905,2.7 L0.006697,2.7 L0.0067035,2.7 L0.0067099,2.7 L0.0067164,2.7 L0.0067229,2.7 L0.0067294,2.7 L0.0067359,2.7 L0.0067424,2.7 L0.0067488,2.7 L0.0067553,2.7 L0.0067618,2.7 L0.0067683,2.7 L0.0067748,2.7 L0.0067813,2.7 L0.0067877,2.7 L0.0067942,2.7 L0.0068007,2.7 L0.0068072,2.7 L0.0068137,2.7 L0.0068201,2.7 L0.0068266,2.7 L0.0068331,2.7 L0.0068396,2.7 L0.0068461,2.7 L0.0068525,2.7 L0.006859,2.7 L0.0068655,2.7 L0.006872,2.7 L0.0068785,2.7 L0.0068849,2.7 L0.0068914,2.7 L0.0068979,2.7 L0.0069044,2.7 L0.0069109,2.7 L0.0069173,2.7 L0.0069238,2.7 L0.0069303,2.7 L0.0069368,2.7 L0.0069433,2.7 L0.0069497,2.7 L0.0069562,2.7 L0.0069627,2.7 L0.0069692,2.7 L0.0069757,2.7 L0.0069821,2.7 L0.0069886,2.7 L0.0069951,2.7 L0.0070016,2.7 L0.0070081,2.7 L0.0070145,2.7 L0.007021,2.7 L0.0070275,2.7 L0.007034,2.7 L0.0070404,2.7 L0.0070469,2.7 L0.0070534,2.7 L0.0070599,2.7 L0.0070664,2.7 L0.0070728,2.7 L0.0070793,2.7 L0.0070858,2.7 L0.0070923,2.7 L0.0070987,2.7 L0.0071052,2.7 L0.0071117,2.7 L0.0071182,2.7 L0.0071246,2.7 L0.0071311,2.7 L0.0071376,2.7 L0.0071441,2.7 L0.0071505,2.7 L0.007157,2.7 L0.0071635,2.7 L0.00717,2.7 L0.0071764,2.7 L0.0071829,2.7 L0.0071894,2.7 L0.0071959,2.7 L0.0072023,2.7 L0.0072088,2.7 L0.0072153,2.7 L0.0072218,2.7 L0.0072282,2.7 L0.0072347,2.7 L0.0072412,2.7 L0.0072477,2.7 L0.0072541,2.7 L0.0072606,2.7 L0.0072671,2.7 L0.0072736,2.7 L0.00728,2.7 L0.0072865,2.7 L0.007293,2.7 L0.0072995,2.7 L0.0073059,2.7 L0.0073124,2.7 L0.0073189,2.7 L0.0073254,2.7 L0.0073318,2.7 L0.0073383,2.7 L0.0073448,2.7 L0.0073512,2.7 L0.0073577,2.7 L0.0073642,2.7 L0.0073707,2.7 L0.0073771,2.7 L0.0073836,2.7 L0.0073901,2.7 L0.0073965,2.7 L0.007403,2.7 L0.0074095,2.7 L0.007416,2.7 L0.0074224,2.7 L0.0074289,2.7 L0.0074354,2.7 L0.0074418,2.7 L0.0074483,2.7 L0.0074548,2.7 L0.0074612,2.7 L0.0074677,2.7 L0.0074742,2.7 L0.0074807,2.7 L0.0074871,2.7 L0.0074936,2.7 L0.0075001,2.7 L0.0075076,2.329 L0.0075152,2.329 L0.0075231,2.329 L0.0075312,2.329 L0.0075394,2.329 L0.0075479,2.329 L0.0075565,2.329 L0.0075654,2.329 L0.0075745,2.329 L0.0075838,2.329 L0.0075933,2.329 L0.007603,2.329 L0.007613,2.329 L0.0076232,2.329 L0.0076336,2.329 L0.0076443,2.329 L0.0076552,2.329 L0.0076664,2.329 L0.0076778,2.329 L0.0076895,2.329 L0.0077014,2.329 L0.0077137,2.329 L0.0077261,2.329 L0.0077389,2.329 L0.0077519,2.329 L0.0077652,2.329 L0.0077788,2.329 L0.0077927,2.329 L0.0078068,2.329 L0.0078213,2.329 L0.007836,2.329 L0.007851,2.329 L0.0078663,2.329 L0.0078819,2.329 L0.0078977,2.329 L0.0079139,2.329 L0.0079303,2.329 L0.007947,2.329 L0.0079639,2.329 L0.0079812,2.329 L0.0079986,2.329 L0.0080164,2.329 L0.0080343,2.329 L0.0080525,2.329 L0.008071,2.329 L0.0080896,2.329 L0.0081084,2.329 L0.0081274,2.329 L0.0081465,2.329 L0.0081658,2.329 L0.0081852,2.329 L0.0082047,2.329 L0.0082243,2.329 L0.008244,2.329 L0.0082637,2.329 L0.0082834,2.329 L0.0083031,2.329 L0.0083227,2.329 L0.0083423,2.329 L0.0083619,2.329 L0.0083813,2.329 L0.0084005,2.329 L0.0084196,2.329 L0.0084385,2.329 L0.0084572,2.329 L0.0084756,2.329 L0.0084938,2.329 L0.0085117,2.329 L0.0085293,2.329 L0.0085466,2.329 L0.0085635,2.329 L0.0085801,2.329 L0.0085963,2.329 L0.0086121,2.329 L0.0086275,2.329 L0.0086426,2.329 L0.0086572,2.329 L0.0086713,2.329 L0.0086851,2.329 L0.0086984,2.329 L0.0087114,2.329 L0.0087238,2.329 L0.0087359,2.329 L0.0087475,2.329 L0.0087588,2.329 L0.0087696,2.329 L0.00878,2.329 L0.00879,2.329 L0.0087996,2.329 L0.0088089,2.329 L0.0088177,2.329 L0.0088262,2.329 L0.0088344,2.329 L0.0088422,2.329 L0.0088497,2.329 L0.0088568,2.329 L0.0088637,2.329 L0.0088702,2.329 L0.0088765,2.329 L0.0088824,2.329 L0.0088881,2.329 L0.0088936,2.329 L0.0088988,2.329 L0.0089037,2.329 L0.0089084,2.329 L0.0089129,2.329 L0.0089172,2.329 L0.0089213,2.329 L0.0089252,2.329 L0.0089289,2.329 L0.0089325,2.329 L0.0089358,2.329 L0.008939,2.329 L0.0089421,2.329 L0.008945,2.329 L0.0089477,2.329 L0.0089504,2.329 L0.0089529,2.329 L0.0089552,2.329 L0.0089575,2.329 L0.0089597,2.329 L0.0089617,2.329 L0.0089636,2.329 L0.0089655,2.329 L0.0089673,2.329 L0.0089689,2.329 L0.0089705,2.329 L0.008972,2.329 L0.0089735,2.329 L0.0089748,2.329 L0.0089761,2.329 L0.0089774,2.329 L0.0089785,2.329 L0.0089796,2.329 L0.0089807,2.329 L0.0089817,2.329 L0.0089827,2.329 L0.0089836,2.329 L0.0089844,2.329 L0.0089852,2.329 L0.008986,2.329 L0.0089868,2.329 L0.0089875,2.329 L0.0089881,2.329 L0.0089888,2.329 L0.0089894,2.329 L0.0089899,2.329 L0.0089905,2.329 L0.008991,2.329 L0.0089915,2.329 L0.008992,2.329 L0.0089924,2.329 L0.0089928,2.329 L0.0089932,2.329 L0.0089936,2.329 L0.008994,2.329 L0.0089943,2.329 L0.0089946,2.329 L0.0089949,2.329 L0.0089952,2.329 L0.0089955,2.329 L0.0089958,2.329 L0.008996,2.329 L0.0089963,2.329 L0.0089965,2.329 L0.0089967,2.329 L0.0089969,2.329 L0.0089971,2.329 L0.0089973,2.329 L0.0089975,2.329 L0.0089976,2.329 L0.0089978,2.329 L0.0089979,2.329 L0.0089981,2.329 L0.0089982,2.329 L0.0089983,2.329 L0.0089985,2.329 L0.0089986,2.329 L0.0089987,2.329 L0.0089988,2.329 L0.0089989,2.329 L0.008999,2.329 L0.0089991,2.329 L0.0089992,2.329 L0.0089992,2.329 L0.0089993,2.329 L0.0089994,2.329 L0.0089995,2.329 L0.0089995,2.329 L0.0089996,2.329 L0.0089997,2.329 L0.0089997,2.329 L0.0089998,2.329 L0.0089998,2.329 L0.0089999,2.329 L0.0089999,2.329 L0.009,2.329 L0.009,2.329 L0.009,2.329 L0.0090001,2.329"/>
</g>

<g fill="none" stroke="#000000" stroke-opacity="1" stroke-width="1" stroke-linecap="square" stroke-linejoin="bevel" transform="matrix(11.6674,0,0,-79.8899,10.9447,759.566)"
font-family="DejaVu Sans" font-size="10" font-weight="400" font-style="normal" 
>
</g>

<g fill="none" stroke="#000000" stroke-opacity="1" stroke-width="1" stroke-linecap="square" stroke-linejoin="bevel" transform="matrix(0,-79.8899,-11.6674,0,10.9564,759.566)"
font-family="DejaVu Sans" font-size="10" font-weight="400" font-style="normal" 
>
</g>

<g fill="none" stroke="#475569" stroke-opacity="1" stroke-dasharray="4,2" stroke-dashoffset="0" stroke-width="1" stroke-linecap="square" stroke-linejoin="miter" stroke-miterlimit="2" transform="matrix(0,-79.8899,-11.6674,0,10.9564,759.566)"
font-family="DejaVu Sans" font-size="10" font-weight="400" font-style="normal" 
>
<polyline fill="none" vector-effect="non-scaling-stroke" points="8.43,0 9.43,0 " />
</g>

<g fill="none" stroke="#000000" stroke-opacity="1" stroke-width="1" stroke-linecap="square" stroke-linejoin="bevel" transform="matrix(0,-79.8899,-11.6674,0,10.9564,759.566)"
font-family="DejaVu Sans" font-size="10" font-weight="400" font-style="normal" 
>
</g>

<g fill="none" stroke="#000000" stroke-opacity="1" stroke-width="1" stroke-linecap="square" stroke-linejoin="bevel" transform="matrix(0,-79.8899,-11.6674,0,11.0322,759.566)"
font-family="DejaVu Sans" font-size="10" font-weight="400" font-style="normal" 
>
</g>

<g fill="none" stroke="#475569" stroke-opacity="1" stroke-dasharray="4,2" stroke-dashoffset="0" stroke-width="1" stroke-linecap="square" stroke-linejoin="miter" stroke-miterlimit="2" transform="matrix(0,-79.8899,-11.6674,0,11.0322,759.566)"
font-family="DejaVu Sans" font-size="10" font-weight="400" font-style="normal" 
>
<polyline fill="none" vector-effect="non-scaling-stroke" points="8.43,0 9.43,0 " />
</g>

<g fill="none" stroke="#000000" stroke-opacity="1" stroke-width="1" stroke-linecap="square" stroke-linejoin="bevel" transform="matrix(0,-79.8899,-11.6674,0,11.0322,759.566)"
font-family="DejaVu Sans" font-size="10" font-weight="400" font-style="normal" 
>
</g>

<g fill="none" stroke="#000000" stroke-opacity="1" stroke-width="1" stroke-linecap="square" stroke-linejoin="bevel" transform="matrix(0.15908,0,0,0.15908,10.9447,6.20411)"
font-family="DejaVu Sans" font-size="10" font-weight="400" font-style="normal" 
>
</g>

<g fill="none" stroke="none" transform="matrix(0.15908,0,0,0.15908,10.9447,6.20411)"
font-family="DejaVu Sans" font-size="10" font-weight="400" font-style="normal" 
>
<rect vector-effect="non-scaling-stroke" x="0" y="0" width="1320.2" height="502.2"/>
</g>

<g fill="none" stroke="#000000" stroke-opacity="1" stroke-width="1" stroke-linecap="square" stroke-linejoin="bevel" transform="matrix(0.15908,0,0,0.15908,10.9447,6.20411)"
font-family="DejaVu Sans" font-size="10" font-weight="400" font-style="normal" 
>
</g>

<g fill="none" stroke="#000000" stroke-opacity="1" stroke-width="1" stroke-linecap="square" stroke-linejoin="bevel" transform="matrix(0.15908,0,0,0.15908,10.9447,6.20411)"
font-family="DejaVu Sans" font-size="10" font-weight="400" font-style="normal" 
>
</g>

<g fill="none" stroke="#000000" stroke-opacity="1" stroke-width="1" stroke-linecap="square" stroke-linejoin="bevel" transform="matrix(1,0,0,1,0,0)"
font-family="DejaVu Sans" font-size="10" font-weight="400" font-style="normal" 
>
</g>

<g fill="none" stroke="#000000" stroke-opacity="1" stroke-width="1" stroke-linecap="square" stroke-linejoin="bevel" transform="matrix(0.15908,0,0,0.15908,10.9447,6.20411)"
font-family="DejaVu Sans" font-size="10" font-weight="400" font-style="normal" 
>
</g>

<g fill="none" stroke="#000000" stroke-opacity="1" stroke-width="1" stroke-linecap="square" stroke-linejoin="bevel" transform="matrix(0.15908,0,0,0.15908,10.9447,1.43172)"
font-family="DejaVu Sans" font-size="10" font-weight="400" font-style="normal" 
>
</g>

<g fill="none" stroke="#000000" stroke-opacity="1" stroke-width="1" stroke-linecap="square" stroke-linejoin="bevel" transform="matrix(0.15908,0,0,0.15908,10.9447,1.43172)"
font-family="DejaVu Sans" font-size="10" font-weight="400" font-style="normal" 
>
</g>

<g fill="none" stroke="#000000" stroke-opacity="1" stroke-width="1" stroke-linecap="square" stroke-linejoin="bevel" transform="matrix(0.15908,0,0,0.15908,57.0142,1.5908)"
font-family="DejaVu Sans" font-size="10" font-weight="400" font-style="normal" 
>
</g>

<g fill="none" stroke="#000000" stroke-opacity="1" stroke-width="1" stroke-linecap="square" stroke-linejoin="bevel" transform="matrix(0.15908,0,0,0.15908,57.0142,1.5908)"
font-family="DejaVu Sans" font-size="10" font-weight="400" font-style="normal" 
>
</g>

<g fill="none" stroke="#000000" stroke-opacity="1" stroke-width="1" stroke-linecap="square" stroke-linejoin="bevel" transform="matrix(0.15908,0,0,0.15908,57.0142,1.5908)"
font-family="DejaVu Sans" font-size="10" font-weight="400" font-style="normal" 
>
</g>

<g fill="none" stroke="#0f172a" stroke-opacity="1" stroke-width="1" stroke-linecap="square" stroke-linejoin="bevel" transform="matrix(0.15908,0,0,0.15908,57.0142,1.5908)"
font-family="DejaVu Sans" font-size="10" font-weight="400" font-style="normal" 
>
<text fill="#0f172a" fill-opacity="1" stroke="none" xml:space="preserve" x="4" y="20" font-family="DejaVu Sans" font-size="13" font-weight="400" font-style="normal" 
 >Density lineout | snapshot 0 | t=1.0000e-15 s | static x | all zones (1300/1300) | linear</text>
</g>

<g fill="none" stroke="#000000" stroke-opacity="1" stroke-width="1" stroke-linecap="square" stroke-linejoin="bevel" transform="matrix(0.15908,0,0,0.15908,57.0142,1.5908)"
font-family="DejaVu Sans" font-size="10" font-weight="400" font-style="normal" 
>
</g>

<g fill="none" stroke="#000000" stroke-opacity="1" stroke-width="1" stroke-linecap="square" stroke-linejoin="bevel" transform="matrix(1,0,0,1,0,0)"
font-family="DejaVu Sans" font-size="10" font-weight="400" font-style="normal" 
>
</g>

<g fill="none" stroke="#000000" stroke-opacity="1" stroke-width="1" stroke-linecap="square" stroke-linejoin="bevel" transform="matrix(0.15908,0,0,0.15908,57.0142,1.5908)"
font-family="DejaVu Sans" font-size="10" font-weight="400" font-style="normal" 
>
</g>

<g fill="none" stroke="#000000" stroke-opacity="1" stroke-width="1" stroke-linecap="square" stroke-linejoin="bevel" transform="matrix(0.15908,0,0,0.15908,57.0142,1.5908)"
font-family="DejaVu Sans" font-size="10" font-weight="400" font-style="normal" 
>
</g>

<g fill="none" stroke="#000000" stroke-opacity="1" stroke-width="1" stroke-linecap="square" stroke-linejoin="bevel" transform="matrix(0.15908,0,0,0.15908,57.0142,1.5908)"
font-family="DejaVu Sans" font-size="10" font-weight="400" font-style="normal" 
>
</g>

<g fill="none" stroke="#000000" stroke-opacity="1" stroke-width="1" stroke-linecap="square" stroke-linejoin="bevel" transform="matrix(0.15908,0,0,0.15908,10.9447,86.094)"
font-family="DejaVu Sans" font-size="10" font-weight="400" font-style="normal" 
>
</g>

<g fill="none" stroke="#0f172a" stroke-opacity="1" stroke-width="1" stroke-linecap="square" stroke-linejoin="bevel" transform="matrix(0.11931,0,0,0.11931,10.9447,86.094)"
font-family="DejaVu Sans" font-size="10" font-weight="400" font-style="normal" 
>
<polyline fill="none" vector-effect="non-scaling-stroke" points="-1,1 1321.2,1 " />
</g>

<g fill="none" stroke="#0f172a" stroke-opacity="0.176471" stroke-width="1" stroke-linecap="square" stroke-linejoin="bevel" transform="matrix(0.11931,0,0,0.11931,10.9447,86.094)"
font-family="DejaVu Sans" font-size="10" font-weight="400" font-style="normal" 
>
<polyline fill="none" vector-effect="non-scaling-stroke" points="5.8677e-06,-502.2 5.8677e-06,0 " />
<polyline fill="none" vector-effect="non-scaling-stroke" points="146.686,-502.2 146.686,0 " />
<polyline fill="none" vector-effect="non-scaling-stroke" points="293.372,-502.2 293.372,0 " />
<polyline fill="none" vector-effect="non-scaling-stroke" points="440.058,-502.2 440.058,0 " />
<polyline fill="none" vector-effect="non-scaling-stroke" points="586.744,-502.2 586.744,0 " />
<polyline fill="none" vector-effect="non-scaling-stroke" points="733.43,-502.2 733.43,0 " />
<polyline fill="none" vector-effect="non-scaling-stroke" points="880.116,-502.2 880.116,0 " />
<polyline fill="none" vector-effect="non-scaling-stroke" points="1026.8,-502.2 1026.8,0 " />
<polyline fill="none" vector-effect="non-scaling-stroke" points="1173.49,-502.2 1173.49,0 " />
<polyline fill="none" vector-effect="non-scaling-stroke" points="1320.17,-502.2 1320.17,0 " />
</g>

<g fill="none" stroke="#0f172a" stroke-opacity="0.0862745" stroke-width="1" stroke-linecap="square" stroke-linejoin="bevel" transform="matrix(0.11931,0,0,0.11931,10.9447,86.094)"
font-family="DejaVu Sans" font-size="10" font-weight="400" font-style="normal" 
>
<polyline fill="none" vector-effect="non-scaling-stroke" points="73.343,-502.2 73.343,0 " />
<polyline fill="none" vector-effect="non-scaling-stroke" points="220.029,-502.2 220.029,0 " />
<polyline fill="none" vector-effect="non-scaling-stroke" points="366.715,-502.2 366.715,0 " />
<polyline fill="none" vector-effect="non-scaling-stroke" points="513.401,-502.2 513.401,0 " />
<polyline fill="none" vector-effect="non-scaling-stroke" points="660.087,-502.2 660.087,0 " />
<polyline fill="none" vector-effect="non-scaling-stroke" points="806.773,-502.2 806.773,0 " />
<polyline fill="none" vector-effect="non-scaling-stroke" points="953.459,-502.2 953.459,0 " />
<polyline fill="none" vector-effect="non-scaling-stroke" points="1100.14,-502.2 1100.14,0 " />
<polyline fill="none" vector-effect="non-scaling-stroke" points="1246.83,-502.2 1246.83,0 " />
</g>

<g fill="none" stroke="#0f172a" stroke-opacity="0.0509804" stroke-width="1" stroke-linecap="square" stroke-linejoin="bevel" transform="matrix(0.11931,0,0,0.11931,10.9447,86.094)"
font-family="DejaVu Sans" font-size="10" font-weight="400" font-style="normal" 
>
<polyline fill="none" vector-effect="non-scaling-stroke" points="14.6686,-502.2 14.6686,0 " />
<polyline fill="none" vector-effect="non-scaling-stroke" points="29.3372,-502.2 29.3372,0 " />
<polyline fill="none" vector-effect="non-scaling-stroke" points="44.0058,-502.2 44.0058,0 " />
<polyline fill="none" vector-effect="non-scaling-stroke" points="58.6744,-502.2 58.6744,0 " />
<polyline fill="none" vector-effect="non-scaling-stroke" points="88.0116,-502.2 88.0116,0 " />
<polyline fill="none" vector-effect="non-scaling-stroke" points="102.68,-502.2 102.68,0 " />
<polyline fill="none" vector-effect="non-scaling-stroke" points="117.349,-502.2 117.349,0 " />
<polyline fill="none" vector-effect="non-scaling-stroke" points="132.017,-502.2 132.017,0 " />
<polyline fill="none" vector-effect="non-scaling-stroke" points="161.355,-502.2 161.355,0 " />
<polyline fill="none" vector-effect="non-scaling-stroke" points="176.023,-502.2 176.023,0 " />
<polyline fill="none" vector-effect="non-scaling-stroke" points="190.692,-502.2 190.692,0 " />
<polyline fill="none" vector-effect="non-scaling-stroke" points="205.36,-502.2 205.36,0 " />
<polyline fill="none" vector-effect="non-scaling-stroke" points="234.698,-502.2 234.698,0 " />
<polyline fill="none" vector-effect="non-scaling-stroke" points="249.366,-502.2 249.366,0 " />
<polyline fill="none" vector-effect="non-scaling-stroke" points="264.035,-502.2 264.035,0 " />
<polyline fill="none" vector-effect="non-scaling-stroke" points="278.703,-502.2 278.703,0 " />
<polyline fill="none" vector-effect="non-scaling-stroke" points="308.041,-502.2 308.041,0 " />
<polyline fill="none" vector-effect="non-scaling-stroke" points="322.709,-502.2 322.709,0 " />
<polyline fill="none" vector-effect="non-scaling-stroke" points="337.378,-502.2 337.378,0 " />
<polyline fill="none" vector-effect="non-scaling-stroke" points="352.046,-502.2 352.046,0 " />
<polyline fill="none" vector-effect="non-scaling-stroke" points="381.383,-502.2 381.383,0 " />
<polyline fill="none" vector-effect="non-scaling-stroke" points="396.052,-502.2 396.052,0 " />
<polyline fill="none" vector-effect="non-scaling-stroke" points="410.721,-502.2 410.721,0 " />
<polyline fill="none" vector-effect="non-scaling-stroke" points="425.389,-502.2 425.389,0 " />
<polyline fill="none" vector-effect="non-scaling-stroke" points="454.726,-502.2 454.726,0 " />
<polyline fill="none" vector-effect="non-scaling-stroke" points="469.395,-502.2 469.395,0 " />
<polyline fill="none" vector-effect="non-scaling-stroke" points="484.064,-502.2 484.064,0 " />
<polyline fill="none" vector-effect="non-scaling-stroke" points="498.732,-502.2 498.732,0 " />
<polyline fill="none" vector-effect="non-scaling-stroke" points="528.069,-502.2 528.069,0 " />
<polyline fill="none" vector-effect="non-scaling-stroke" points="542.738,-502.2 542.738,0 " />
<polyline fill="none" vector-effect="non-scaling-stroke" points="557.407,-502.2 557.407,0 " />
<polyline fill="none" vector-effect="non-scaling-stroke" points="572.075,-502.2 572.075,0 " />
<polyline fill="none" vector-effect="non-scaling-stroke" points="601.412,-502.2 601.412,0 " />
<polyline fill="none" vector-effect="non-scaling-stroke" points="616.081,-502.2 616.081,0 " />
<polyline fill="none" vector-effect="non-scaling-stroke" points="630.75,-502.2 630.75,0 " />
<polyline fill="none" vector-effect="non-scaling-stroke" points="645.418,-502.2 645.418,0 " />
<polyline fill="none" vector-effect="non-scaling-stroke" points="674.755,-502.2 674.755,0 " />
<polyline fill="none" vector-effect="non-scaling-stroke" points="689.424,-502.2 689.424,0 " />
<polyline fill="none" vector-effect="non-scaling-stroke" points="704.093,-502.2 704.093,0 " />
<polyline fill="none" vector-effect="non-scaling-stroke" points="718.761,-502.2 718.761,0 " />
<polyline fill="none" vector-effect="non-scaling-stroke" points="748.098,-502.2 748.098,0 " />
<polyline fill="none" vector-effect="non-scaling-stroke" points="762.767,-502.2 762.767,0 " />
<polyline fill="none" vector-effect="non-scaling-stroke" points="777.436,-502.2 777.436,0 " />
<polyline fill="none" vector-effect="non-scaling-stroke" points="792.104,-502.2 792.104,0 " />
<polyline fill="none" vector-effect="non-scaling-stroke" points="821.441,-502.2 821.441,0 " />
<polyline fill="none" vector-effect="non-scaling-stroke" points="836.11,-502.2 836.11,0 " />
<polyline fill="none" vector-effect="non-scaling-stroke" points="850.779,-502.2 850.779,0 " />
<polyline fill="none" vector-effect="non-scaling-stroke" points="865.447,-502.2 865.447,0 " />
<polyline fill="none" vector-effect="non-scaling-stroke" points="894.784,-502.2 894.784,0 " />
<polyline fill="none" vector-effect="non-scaling-stroke" points="909.453,-502.2 909.453,0 " />
<polyline fill="none" vector-effect="non-scaling-stroke" points="924.122,-502.2 924.122,0 " />
<polyline fill="none" vector-effect="non-scaling-stroke" points="938.79,-502.2 938.79,0 " />
<polyline fill="none" vector-effect="non-scaling-stroke" points="968.127,-502.2 968.127,0 " />
<polyline fill="none" vector-effect="non-scaling-stroke" points="982.796,-502.2 982.796,0 " />
<polyline fill="none" vector-effect="non-scaling-stroke" points="997.465,-502.2 997.465,0 " />
<polyline fill="none" vector-effect="non-scaling-stroke" points="1012.13,-502.2 1012.13,0 " />
<polyline fill="none" vector-effect="non-scaling-stroke" points="1041.47,-502.2 1041.47,0 " />
<polyline fill="none" vector-effect="non-scaling-stroke" points="1056.14,-502.2 1056.14,0 " />
<polyline fill="none" vector-effect="non-scaling-stroke" points="1070.81,-502.2 1070.81,0 " />
<polyline fill="none" vector-effect="non-scaling-stroke" points="1085.48,-502.2 1085.48,0 " />
<polyline fill="none" vector-effect="non-scaling-stroke" points="1114.81,-502.2 1114.81,0 " />
<polyline fill="none" vector-effect="non-scaling-stroke" points="1129.48,-502.2 1129.48,0 " />
<polyline fill="none" vector-effect="non-scaling-stroke" points="1144.15,-502.2 1144.15,0 " />
<polyline fill="none" vector-effect="non-scaling-stroke" points="1158.82,-502.2 1158.82,0 " />
<polyline fill="none" vector-effect="non-scaling-stroke" points="1188.16,-502.2 1188.16,0 " />
<polyline fill="none" vector-effect="non-scaling-stroke" points="1202.82,-502.2 1202.82,0 " />
<polyline fill="none" vector-effect="non-scaling-stroke" points="1217.49,-502.2 1217.49,0 " />
<polyline fill="none" vector-effect="non-scaling-stroke" points="1232.16,-502.2 1232.16,0 " />
<polyline fill="none" vector-effect="non-scaling-stroke" points="1261.5,-502.2 1261.5,0 " />
<polyline fill="none" vector-effect="non-scaling-stroke" points="1276.17,-502.2 1276.17,0 " />
<polyline fill="none" vector-effect="non-scaling-stroke" points="1290.84,-502.2 1290.84,0 " />
<polyline fill="none" vector-effect="non-scaling-stroke" points="1305.51,-502.2 1305.51,0 " />
</g>

<g fill="none" stroke="#0f172a" stroke-opacity="1" stroke-width="1" stroke-linecap="square" stroke-linejoin="bevel" transform="matrix(0.11931,0,0,0.11931,10.9447,86.094)"
font-family="DejaVu Sans" font-size="10" font-weight="400" font-style="normal" 
>
</g>

<g fill="none" stroke="#0f172a" stroke-opacity="1" stroke-width="1" stroke-linecap="square" stroke-linejoin="bevel" transform="matrix(0.11931,0,0,0.11931,10.9447,86.094)"
font-family="DejaVu Sans" font-size="10" font-weight="400" font-style="normal" 
>
<text fill="#0f172a" fill-opacity="1" stroke="none" xml:space="preserve" x="142.672" y="14" font-family="DejaVu Sans" font-size="10" font-weight="400" font-style="normal" 
 >2</text>
</g>

<g fill="none" stroke="#0f172a" stroke-opacity="1" stroke-width="1" stroke-linecap="square" stroke-linejoin="bevel" transform="matrix(0.11931,0,0,0.11931,10.9447,86.094)"
font-family="DejaVu Sans" font-size="10" font-weight="400" font-style="normal" 
>
<text fill="#0f172a" fill-opacity="1" stroke="none" xml:space="preserve" x="289.359" y="14" font-family="DejaVu Sans" font-size="10" font-weight="400" font-style="normal" 
 >4</text>
</g>

<g fill="none" stroke="#0f172a" stroke-opacity="1" stroke-width="1" stroke-linecap="square" stroke-linejoin="bevel" transform="matrix(0.11931,0,0,0.11931,10.9447,86.094)"
font-family="DejaVu Sans" font-size="10" font-weight="400" font-style="normal" 
>
<text fill="#0f172a" fill-opacity="1" stroke="none" xml:space="preserve" x="436.047" y="14" font-family="DejaVu Sans" font-size="10" font-weight="400" font-style="normal" 
 >6</text>
</g>

<g fill="none" stroke="#0f172a" stroke-opacity="1" stroke-width="1" stroke-linecap="square" stroke-linejoin="bevel" transform="matrix(0.11931,0,0,0.11931,10.9447,86.094)"
font-family="DejaVu Sans" font-size="10" font-weight="400" font-style="normal" 
>
<text fill="#0f172a" fill-opacity="1" stroke="none" xml:space="preserve" x="582.734" y="14" font-family="DejaVu Sans" font-size="10" font-weight="400" font-style="normal" 
 >8</text>
</g>

<g fill="none" stroke="#0f172a" stroke-opacity="1" stroke-width="1" stroke-linecap="square" stroke-linejoin="bevel" transform="matrix(0.11931,0,0,0.11931,10.9447,86.094)"
font-family="DejaVu Sans" font-size="10" font-weight="400" font-style="normal" 
>
<text fill="#0f172a" fill-opacity="1" stroke="none" xml:space="preserve" x="725.422" y="14" font-family="DejaVu Sans" font-size="10" font-weight="400" font-style="normal" 
 >10</text>
</g>

<g fill="none" stroke="#0f172a" stroke-opacity="1" stroke-width="1" stroke-linecap="square" stroke-linejoin="bevel" transform="matrix(0.11931,0,0,0.11931,10.9447,86.094)"
font-family="DejaVu Sans" font-size="10" font-weight="400" font-style="normal" 
>
<text fill="#0f172a" fill-opacity="1" stroke="none" xml:space="preserve" x="872.109" y="14" font-family="DejaVu Sans" font-size="10" font-weight="400" font-style="normal" 
 >12</text>
</g>

<g fill="none" stroke="#0f172a" stroke-opacity="1" stroke-width="1" stroke-linecap="square" stroke-linejoin="bevel" transform="matrix(0.11931,0,0,0.11931,10.9447,86.094)"
font-family="DejaVu Sans" font-size="10" font-weight="400" font-style="normal" 
>
<text fill="#0f172a" fill-opacity="1" stroke="none" xml:space="preserve" x="1018.8" y="14" font-family="DejaVu Sans" font-size="10" font-weight="400" font-style="normal" 
 >14</text>
</g>

<g fill="none" stroke="#0f172a" stroke-opacity="1" stroke-width="1" stroke-linecap="square" stroke-linejoin="bevel" transform="matrix(0.11931,0,0,0.11931,10.9447,86.094)"
font-family="DejaVu Sans" font-size="10" font-weight="400" font-style="normal" 
>
<text fill="#0f172a" fill-opacity="1" stroke="none" xml:space="preserve" x="1165.48" y="14" font-family="DejaVu Sans" font-size="10" font-weight="400" font-style="normal" 
 >16</text>
</g>

<g fill="none" stroke="#0f172a" stroke-opacity="1" stroke-width="1" stroke-linecap="square" stroke-linejoin="bevel" transform="matrix(0.11931,0,0,0.11931,10.9447,86.094)"
font-family="DejaVu Sans" font-size="10" font-weight="400" font-style="normal" 
>
<text fill="#0f172a" fill-opacity="1" stroke="none" xml:space="preserve" x="69.3281" y="14" font-family="DejaVu Sans" font-size="10" font-weight="400" font-style="normal" 
 >1</text>
</g>

<g fill="none" stroke="#0f172a" stroke-opacity="1" stroke-width="1" stroke-linecap="square" stroke-linejoin="bevel" transform="matrix(0.11931,0,0,0.11931,10.9447,86.094)"
font-family="DejaVu Sans" font-size="10" font-weight="400" font-style="normal" 
>
<text fill="#0f172a" fill-opacity="1" stroke="none" xml:space="preserve" x="216.016" y="14" font-family="DejaVu Sans" font-size="10" font-weight="400" font-style="normal" 
 >3</text>
</g>

<g fill="none" stroke="#0f172a" stroke-opacity="1" stroke-width="1" stroke-linecap="square" stroke-linejoin="bevel" transform="matrix(0.11931,0,0,0.11931,10.9447,86.094)"
font-family="DejaVu Sans" font-size="10" font-weight="400" font-style="normal" 
>
<text fill="#0f172a" fill-opacity="1" stroke="none" xml:space="preserve" x="362.703" y="14" font-family="DejaVu Sans" font-size="10" font-weight="400" font-style="normal" 
 >5</text>
</g>

<g fill="none" stroke="#0f172a" stroke-opacity="1" stroke-width="1" stroke-linecap="square" stroke-linejoin="bevel" transform="matrix(0.11931,0,0,0.11931,10.9447,86.094)"
font-family="DejaVu Sans" font-size="10" font-weight="400" font-style="normal" 
>
<text fill="#0f172a" fill-opacity="1" stroke="none" xml:space="preserve" x="509.391" y="14" font-family="DejaVu Sans" font-size="10" font-weight="400" font-style="normal" 
 >7</text>
</g>

<g fill="none" stroke="#0f172a" stroke-opacity="1" stroke-width="1" stroke-linecap="square" stroke-linejoin="bevel" transform="matrix(0.11931,0,0,0.11931,10.9447,86.094)"
font-family="DejaVu Sans" font-size="10" font-weight="400" font-style="normal" 
>
<text fill="#0f172a" fill-opacity="1" stroke="none" xml:space="preserve" x="656.078" y="14" font-family="DejaVu Sans" font-size="10" font-weight="400" font-style="normal" 
 >9</text>
</g>

<g fill="none" stroke="#0f172a" stroke-opacity="1" stroke-width="1" stroke-linecap="square" stroke-linejoin="bevel" transform="matrix(0.11931,0,0,0.11931,10.9447,86.094)"
font-family="DejaVu Sans" font-size="10" font-weight="400" font-style="normal" 
>
<text fill="#0f172a" fill-opacity="1" stroke="none" xml:space="preserve" x="798.766" y="14" font-family="DejaVu Sans" font-size="10" font-weight="400" font-style="normal" 
 >11</text>
</g>

<g fill="none" stroke="#0f172a" stroke-opacity="1" stroke-width="1" stroke-linecap="square" stroke-linejoin="bevel" transform="matrix(0.11931,0,0,0.11931,10.9447,86.094)"
font-family="DejaVu Sans" font-size="10" font-weight="400" font-style="normal" 
>
<text fill="#0f172a" fill-opacity="1" stroke="none" xml:space="preserve" x="945.453" y="14" font-family="DejaVu Sans" font-size="10" font-weight="400" font-style="normal" 
 >13</text>
</g>

<g fill="none" stroke="#0f172a" stroke-opacity="1" stroke-width="1" stroke-linecap="square" stroke-linejoin="bevel" transform="matrix(0.11931,0,0,0.11931,10.9447,86.094)"
font-family="DejaVu Sans" font-size="10" font-weight="400" font-style="normal" 
>
<text fill="#0f172a" fill-opacity="1" stroke="none" xml:space="preserve" x="1092.14" y="14" font-family="DejaVu Sans" font-size="10" font-weight="400" font-style="normal" 
 >15</text>
</g>

<g fill="none" stroke="#0f172a" stroke-opacity="1" stroke-width="1" stroke-linecap="square" stroke-linejoin="bevel" transform="matrix(0.11931,0,0,0.11931,10.9447,86.094)"
font-family="DejaVu Sans" font-size="10" font-weight="400" font-style="normal" 
>
<text fill="#0f172a" fill-opacity="1" stroke="none" xml:space="preserve" x="1238.83" y="14" font-family="DejaVu Sans" font-size="10" font-weight="400" font-style="normal" 
 >17</text>
</g>

<g fill="none" stroke="#0f172a" stroke-opacity="1" stroke-width="1" stroke-linecap="square" stroke-linejoin="bevel" transform="matrix(0.11931,0,0,0.11931,10.9447,86.094)"
font-family="DejaVu Sans" font-size="10" font-weight="400" font-style="normal" 
>
</g>

<g fill="none" stroke="#0f172a" stroke-opacity="1" stroke-width="1" stroke-linecap="square" stroke-linejoin="bevel" transform="matrix(1,0,0,1,0,0)"
font-family="DejaVu Sans" font-size="10" font-weight="400" font-style="normal" 
>
</g>

<g fill="none" stroke="#000000" stroke-opacity="1" stroke-width="1" stroke-linecap="square" stroke-linejoin="bevel" transform="matrix(0.15908,0,0,0.15908,10.9447,86.094)"
font-family="DejaVu Sans" font-size="10" font-weight="400" font-style="normal" 
>
</g>

<g fill="none" stroke="#000000" stroke-opacity="1" stroke-width="1" stroke-linecap="square" stroke-linejoin="bevel" transform="matrix(0.15908,0,0,0.15908,108.302,89.1165)"
font-family="DejaVu Sans" font-size="10" font-weight="400" font-style="normal" 
>
</g>

<g fill="none" stroke="#000000" stroke-opacity="1" stroke-width="1" stroke-linecap="square" stroke-linejoin="bevel" transform="matrix(0.15908,0,0,0.15908,108.302,89.1165)"
font-family="DejaVu Sans" font-size="10" font-weight="400" font-style="normal" 
>
</g>

<g fill="none" stroke="#000000" stroke-opacity="1" stroke-width="1" stroke-linecap="square" stroke-linejoin="bevel" transform="matrix(0.15908,0,0,0.15908,108.302,89.1165)"
font-family="DejaVu Sans" font-size="10" font-weight="400" font-style="normal" 
>
</g>

<g fill="none" stroke="#0f172a" stroke-opacity="1" stroke-width="1" stroke-linecap="square" stroke-linejoin="bevel" transform="matrix(0.15908,0,0,0.15908,108.302,89.1165)"
font-family="DejaVu Sans" font-size="10" font-weight="400" font-style="normal" 
>
<text fill="#0f172a" fill-opacity="1" stroke="none" xml:space="preserve" x="4" y="18" font-family="DejaVu Sans" font-size="11" font-weight="400" font-style="normal" 
 >Static x [cm] </text>
</g>

<g fill="none" stroke="#000000" stroke-opacity="1" stroke-width="1" stroke-linecap="square" stroke-linejoin="bevel" transform="matrix(0.15908,0,0,0.15908,108.302,89.1165)"
font-family="DejaVu Sans" font-size="10" font-weight="400" font-style="normal" 
>
</g>

<g fill="none" stroke="#000000" stroke-opacity="1" stroke-width="1" stroke-linecap="square" stroke-linejoin="bevel" transform="matrix(1,0,0,1,0,0)"
font-family="DejaVu Sans" font-size="10" font-weight="400" font-style="normal" 
>
</g>

<g fill="none" stroke="#000000" stroke-opacity="1" stroke-width="1" stroke-linecap="square" stroke-linejoin="bevel" transform="matrix(0.15908,0,0,0.15908,108.302,89.1165)"
font-family="DejaVu Sans" font-size="10" font-weight="400" font-style="normal" 
>
</g>

<g fill="none" stroke="#000000" stroke-opacity="1" stroke-width="1" stroke-linecap="square" stroke-linejoin="bevel" transform="matrix(0.15908,0,0,0.15908,108.302,89.1165)"
font-family="DejaVu Sans" font-size="10" font-weight="400" font-style="normal" 
>
</g>

<g fill="none" stroke="#000000" stroke-opacity="1" stroke-width="1" stroke-linecap="square" stroke-linejoin="bevel" transform="matrix(0.15908,0,0,0.15908,108.302,89.1165)"
font-family="DejaVu Sans" font-size="10" font-weight="400" font-style="normal" 
>
</g>

<g fill="none" stroke="#000000" stroke-opacity="1" stroke-width="1" stroke-linecap="square" stroke-linejoin="bevel" transform="matrix(0.15908,0,0,0.15908,2.06804,6.20411)"
font-family="DejaVu Sans" font-size="10" font-weight="400" font-style="normal" 
>
</g>

<g fill="none" stroke="#0f172a" stroke-opacity="1" stroke-width="1" stroke-linecap="square" stroke-linejoin="bevel" transform="matrix(0.11931,0,0,0.11931,2.06804,6.20411)"
font-family="DejaVu Sans" font-size="10" font-weight="400" font-style="normal" 
>
<polyline fill="none" vector-effect="non-scaling-stroke" points="54.8,-1 54.8,503.2 " />
</g>

<g fill="none" stroke="#0f172a" stroke-opacity="0.176471" stroke-width="1" stroke-linecap="square" stroke-linejoin="bevel" transform="matrix(0.11931,0,0,0.11931,2.06804,6.20411)"
font-family="DejaVu Sans" font-size="10" font-weight="400" font-style="normal" 
>
<polyline fill="none" vector-effect="non-scaling-stroke" points="1376.5,416.826 55.8,416.826 " />
<polyline fill="none" vector-effect="non-scaling-stroke" points="1376.5,316.386 55.8,316.386 " />
<polyline fill="none" vector-effect="non-scaling-stroke" points="1376.5,215.946 55.8,215.946 " />
<polyline fill="none" vector-effect="non-scaling-stroke" points="1376.5,115.506 55.8,115.506 " />
<polyline fill="none" vector-effect="non-scaling-stroke" points="1376.5,15.066 55.8,15.066 " />
</g>

<g fill="none" stroke="#0f172a" stroke-opacity="0.0862745" stroke-width="1" stroke-linecap="square" stroke-linejoin="bevel" transform="matrix(0.11931,0,0,0.11931,2.06804,6.20411)"
font-family="DejaVu Sans" font-size="10" font-weight="400" font-style="normal" 
>
<polyline fill="none" vector-effect="non-scaling-stroke" points="1376.5,467.046 55.8,467.046 " />
<polyline fill="none" vector-effect="non-scaling-stroke" points="1376.5,366.606 55.8,366.606 " />
<polyline fill="none" vector-effect="non-scaling-stroke" points="1376.5,266.166 55.8,266.166 " />
<polyline fill="none" vector-effect="non-scaling-stroke" points="1376.5,165.726 55.8,165.726 " />
<polyline fill="none" vector-effect="non-scaling-stroke" points="1376.5,65.286 55.8,65.286 " />
</g>

<g fill="none" stroke="#0f172a" stroke-opacity="0.0352941" stroke-width="1" stroke-linecap="square" stroke-linejoin="bevel" transform="matrix(0.11931,0,0,0.11931,2.06804,6.20411)"
font-family="DejaVu Sans" font-size="10" font-weight="400" font-style="normal" 
>
<polyline fill="none" vector-effect="non-scaling-stroke" points="1376.5,497.178 55.8,497.178 " />
<polyline fill="none" vector-effect="non-scaling-stroke" points="1376.5,487.134 55.8,487.134 " />
<polyline fill="none" vector-effect="non-scaling-stroke" points="1376.5,477.09 55.8,477.09 " />
<polyline fill="none" vector-effect="non-scaling-stroke" points="1376.5,457.002 55.8,457.002 " />
<polyline fill="none" vector-effect="non-scaling-stroke" points="1376.5,446.958 55.8,446.958 " />
<polyline fill="none" vector-effect="non-scaling-stroke" points="1376.5,436.914 55.8,436.914 " />
<polyline fill="none" vector-effect="non-scaling-stroke" points="1376.5,426.87 55.8,426.87 " />
<polyline fill="none" vector-effect="non-scaling-stroke" points="1376.5,406.782 55.8,406.782 " />
<polyline fill="none" vector-effect="non-scaling-stroke" points="1376.5,396.738 55.8,396.738 " />
<polyline fill="none" vector-effect="non-scaling-stroke" points="1376.5,386.694 55.8,386.694 " />
<polyline fill="none" vector-effect="non-scaling-stroke" points="1376.5,376.65 55.8,376.65 " />
<polyline fill="none" vector-effect="non-scaling-stroke" points="1376.5,356.562 55.8,356.562 " />
<polyline fill="none" vector-effect="non-scaling-stroke" points="1376.5,346.518 55.8,346.518 " />
<polyline fill="none" vector-effect="non-scaling-stroke" points="1376.5,336.474 55.8,336.474 " />
<polyline fill="none" vector-effect="non-scaling-stroke" points="1376.5,326.43 55.8,326.43 " />
<polyline fill="none" vector-effect="non-scaling-stroke" points="1376.5,306.342 55.8,306.342 " />
<polyline fill="none" vector-effect="non-scaling-stroke" points="1376.5,296.298 55.8,296.298 " />
<polyline fill="none" vector-effect="non-scaling-stroke" points="1376.5,286.254 55.8,286.254 " />
<polyline fill="none" vector-effect="non-scaling-stroke" points="1376.5,276.21 55.8,276.21 " />
<polyline fill="none" vector-effect="non-scaling-stroke" points="1376.5,256.122 55.8,256.122 " />
<polyline fill="none" vector-effect="non-scaling-stroke" points="1376.5,246.078 55.8,246.078 " />
<polyline fill="none" vector-effect="non-scaling-stroke" points="1376.5,236.034 55.8,236.034 " />
<polyline fill="none" vector-effect="non-scaling-stroke" points="1376.5,225.99 55.8,225.99 " />
<polyline fill="none" vector-effect="non-scaling-stroke" points="1376.5,205.902 55.8,205.902 " />
<polyline fill="none" vector-effect="non-scaling-stroke" points="1376.5,195.858 55.8,195.858 " />
<polyline fill="none" vector-effect="non-scaling-stroke" points="1376.5,185.814 55.8,185.814 " />
<polyline fill="none" vector-effect="non-scaling-stroke" points="1376.5,175.77 55.8,175.77 " />
<polyline fill="none" vector-effect="non-scaling-stroke" points="1376.5,155.682 55.8,155.682 " />
<polyline fill="none" vector-effect="non-scaling-stroke" points="1376.5,145.638 55.8,145.638 " />
<polyline fill="none" vector-effect="non-scaling-stroke" points="1376.5,135.594 55.8,135.594 " />
<polyline fill="none" vector-effect="non-scaling-stroke" points="1376.5,125.55 55.8,125.55 " />
<polyline fill="none" vector-effect="non-scaling-stroke" points="1376.5,105.462 55.8,105.462 " />
<polyline fill="none" vector-effect="non-scaling-stroke" points="1376.5,95.418 55.8,95.418 " />
<polyline fill="none" vector-effect="non-scaling-stroke" points="1376.5,85.374 55.8,85.374 " />
<polyline fill="none" vector-effect="non-scaling-stroke" points="1376.5,75.33 55.8,75.33 " />
<polyline fill="none" vector-effect="non-scaling-stroke" points="1376.5,55.242 55.8,55.242 " />
<polyline fill="none" vector-effect="non-scaling-stroke" points="1376.5,45.198 55.8,45.198 " />
<polyline fill="none" vector-effect="non-scaling-stroke" points="1376.5,35.154 55.8,35.154 " />
<polyline fill="none" vector-effect="non-scaling-stroke" points="1376.5,25.11 55.8,25.11 " />
<polyline fill="none" vector-effect="non-scaling-stroke" points="1376.5,5.022 55.8,5.022 " />
</g>

<g fill="none" stroke="#0f172a" stroke-opacity="1" stroke-width="1" stroke-linecap="square" stroke-linejoin="bevel" transform="matrix(0.11931,0,0,0.11931,2.06804,6.20411)"
font-family="DejaVu Sans" font-size="10" font-weight="400" font-style="normal" 
>
</g>

<g fill="none" stroke="#0f172a" stroke-opacity="1" stroke-width="1" stroke-linecap="square" stroke-linejoin="bevel" transform="matrix(0.11931,0,0,0.11931,2.06804,6.20411)"
font-family="DejaVu Sans" font-size="10" font-weight="400" font-style="normal" 
>
<text fill="#0f172a" fill-opacity="1" stroke="none" xml:space="preserve" x="30.7969" y="421.313" font-family="DejaVu Sans" font-size="10" font-weight="400" font-style="normal" 
 >8.6</text>
</g>

<g fill="none" stroke="#0f172a" stroke-opacity="1" stroke-width="1" stroke-linecap="square" stroke-linejoin="bevel" transform="matrix(0.11931,0,0,0.11931,2.06804,6.20411)"
font-family="DejaVu Sans" font-size="10" font-weight="400" font-style="normal" 
>
<text fill="#0f172a" fill-opacity="1" stroke="none" xml:space="preserve" x="30.7969" y="320.875" font-family="DejaVu Sans" font-size="10" font-weight="400" font-style="normal" 
 >8.8</text>
</g>

<g fill="none" stroke="#0f172a" stroke-opacity="1" stroke-width="1" stroke-linecap="square" stroke-linejoin="bevel" transform="matrix(0.11931,0,0,0.11931,2.06804,6.20411)"
font-family="DejaVu Sans" font-size="10" font-weight="400" font-style="normal" 
>
<text fill="#0f172a" fill-opacity="1" stroke="none" xml:space="preserve" x="30.7969" y="220.438" font-family="DejaVu Sans" font-size="10" font-weight="400" font-style="normal" 
 >9.0</text>
</g>

<g fill="none" stroke="#0f172a" stroke-opacity="1" stroke-width="1" stroke-linecap="square" stroke-linejoin="bevel" transform="matrix(0.11931,0,0,0.11931,2.06804,6.20411)"
font-family="DejaVu Sans" font-size="10" font-weight="400" font-style="normal" 
>
<text fill="#0f172a" fill-opacity="1" stroke="none" xml:space="preserve" x="30.7969" y="120" font-family="DejaVu Sans" font-size="10" font-weight="400" font-style="normal" 
 >9.2</text>
</g>

<g fill="none" stroke="#0f172a" stroke-opacity="1" stroke-width="1" stroke-linecap="square" stroke-linejoin="bevel" transform="matrix(0.11931,0,0,0.11931,2.06804,6.20411)"
font-family="DejaVu Sans" font-size="10" font-weight="400" font-style="normal" 
>
<text fill="#0f172a" fill-opacity="1" stroke="none" xml:space="preserve" x="30.7969" y="19.5625" font-family="DejaVu Sans" font-size="10" font-weight="400" font-style="normal" 
 >9.4</text>
</g>

<g fill="none" stroke="#0f172a" stroke-opacity="1" stroke-width="1" stroke-linecap="square" stroke-linejoin="bevel" transform="matrix(0.11931,0,0,0.11931,2.06804,6.20411)"
font-family="DejaVu Sans" font-size="10" font-weight="400" font-style="normal" 
>
<text fill="#0f172a" fill-opacity="1" stroke="none" xml:space="preserve" x="30.7969" y="471.531" font-family="DejaVu Sans" font-size="10" font-weight="400" font-style="normal" 
 >8.5</text>
</g>

<g fill="none" stroke="#0f172a" stroke-opacity="1" stroke-width="1" stroke-linecap="square" stroke-linejoin="bevel" transform="matrix(0.11931,0,0,0.11931,2.06804,6.20411)"
font-family="DejaVu Sans" font-size="10" font-weight="400" font-style="normal" 
>
<text fill="#0f172a" fill-opacity="1" stroke="none" xml:space="preserve" x="30.7969" y="371.094" font-family="DejaVu Sans" font-size="10" font-weight="400" font-style="normal" 
 >8.7</text>
</g>

<g fill="none" stroke="#0f172a" stroke-opacity="1" stroke-width="1" stroke-linecap="square" stroke-linejoin="bevel" transform="matrix(0.11931,0,0,0.11931,2.06804,6.20411)"
font-family="DejaVu Sans" font-size="10" font-weight="400" font-style="normal" 
>
<text fill="#0f172a" fill-opacity="1" stroke="none" xml:space="preserve" x="30.7969" y="270.656" font-family="DejaVu Sans" font-size="10" font-weight="400" font-style="normal" 
 >8.9</text>
</g>

<g fill="none" stroke="#0f172a" stroke-opacity="1" stroke-width="1" stroke-linecap="square" stroke-linejoin="bevel" transform="matrix(0.11931,0,0,0.11931,2.06804,6.20411)"
font-family="DejaVu Sans" font-size="10" font-weight="400" font-style="normal" 
>
<text fill="#0f172a" fill-opacity="1" stroke="none" xml:space="preserve" x="30.7969" y="170.219" font-family="DejaVu Sans" font-size="10" font-weight="400" font-style="normal" 
 >9.1</text>
</g>

<g fill="none" stroke="#0f172a" stroke-opacity="1" stroke-width="1" stroke-linecap="square" stroke-linejoin="bevel" transform="matrix(0.11931,0,0,0.11931,2.06804,6.20411)"
font-family="DejaVu Sans" font-size="10" font-weight="400" font-style="normal" 
>
<text fill="#0f172a" fill-opacity="1" stroke="none" xml:space="preserve" x="30.7969" y="69.7813" font-family="DejaVu Sans" font-size="10" font-weight="400" font-style="normal" 
 >9.3</text>
</g>

<g fill="none" stroke="#0f172a" stroke-opacity="1" stroke-width="1" stroke-linecap="square" stroke-linejoin="bevel" transform="matrix(0.11931,0,0,0.11931,2.06804,6.20411)"
font-family="DejaVu Sans" font-size="10" font-weight="400" font-style="normal" 
>
</g>

<g fill="none" stroke="#0f172a" stroke-opacity="1" stroke-width="1" stroke-linecap="square" stroke-linejoin="bevel" transform="matrix(1,0,0,1,0,0)"
font-family="DejaVu Sans" font-size="10" font-weight="400" font-style="normal" 
>
</g>

<g fill="none" stroke="#000000" stroke-opacity="1" stroke-width="1" stroke-linecap="square" stroke-linejoin="bevel" transform="matrix(0.15908,0,0,0.15908,2.06804,6.20411)"
font-family="DejaVu Sans" font-size="10" font-weight="400" font-style="normal" 
>
</g>

<g fill="none" stroke="#000000" stroke-opacity="1" stroke-width="1" stroke-linecap="square" stroke-linejoin="bevel" transform="matrix(0,-0.15908,0.15908,0,1.27264,50.4283)"
font-family="DejaVu Sans" font-size="10" font-weight="400" font-style="normal" 
>
</g>

<g fill="none" stroke="#000000" stroke-opacity="1" stroke-width="1" stroke-linecap="square" stroke-linejoin="bevel" transform="matrix(0,-0.15908,0.15908,0,1.27264,50.4283)"
font-family="DejaVu Sans" font-size="10" font-weight="400" font-style="normal" 
>
</g>

<g fill="none" stroke="#000000" stroke-opacity="1" stroke-width="1" stroke-linecap="square" stroke-linejoin="bevel" transform="matrix(0,-0.15908,0.15908,0,1.27264,50.4283)"
font-family="DejaVu Sans" font-size="10" font-weight="400" font-style="normal" 
>
</g>

<g fill="none" stroke="#0f172a" stroke-opacity="1" stroke-width="1" stroke-linecap="square" stroke-linejoin="bevel" transform="matrix(0,-0.15908,0.15908,0,1.27264,50.4283)"
font-family="DejaVu Sans" font-size="10" font-weight="400" font-style="normal" 
>
<text fill="#0f172a" fill-opacity="1" stroke="none" xml:space="preserve" x="4" y="18" font-family="DejaVu Sans" font-size="11" font-weight="400" font-style="normal" 
 >Density [g/cm3] </text>
</g>

<g fill="none" stroke="#000000" stroke-opacity="1" stroke-width="1" stroke-linecap="square" stroke-linejoin="bevel" transform="matrix(0,-0.15908,0.15908,0,1.27264,50.4283)"
font-family="DejaVu Sans" font-size="10" font-weight="400" font-style="normal" 
>
</g>

<g fill="none" stroke="#000000" stroke-opacity="1" stroke-width="1" stroke-linecap="square" stroke-linejoin="bevel" transform="matrix(1,0,0,1,0,0)"
font-family="DejaVu Sans" font-size="10" font-weight="400" font-style="normal" 
>
</g>

<g fill="none" stroke="#000000" stroke-opacity="1" stroke-width="1" stroke-linecap="square" stroke-linejoin="bevel" transform="matrix(0,-0.15908,0.15908,0,1.27264,50.4283)"
font-family="DejaVu Sans" font-size="10" font-weight="400" font-style="normal" 
>
</g>

<g fill="none" stroke="#000000" stroke-opacity="1" stroke-width="1" stroke-linecap="square" stroke-linejoin="bevel" transform="matrix(0,-0.15908,0.15908,0,1.27264,50.4283)"
font-family="DejaVu Sans" font-size="10" font-weight="400" font-style="normal" 
>
</g>

<g fill="none" stroke="#000000" stroke-opacity="1" stroke-width="1" stroke-linecap="square" stroke-linejoin="bevel" transform="matrix(0,-0.15908,0.15908,0,1.27264,50.4283)"
font-family="DejaVu Sans" font-size="10" font-weight="400" font-style="normal" 
>
</g>

<g fill="none" stroke="#000000" stroke-opacity="1" stroke-width="1" stroke-linecap="square" stroke-linejoin="bevel" transform="matrix(1,0,0,1,0,0)"
font-family="DejaVu Sans" font-size="10" font-weight="400" font-style="normal" 
>
</g>
</g>
</svg>
